  0
SECTION
  2
HEADER
  9
$ACADVER
  1
AC1009
  9
$INSBASE
 10
0.0
 20
0.0
 30
0.0
  9
$EXTMIN
 10
0.0000001405201715
 20
0.0000000721678361
 30
0.0
  9
$EXTMAX
 10
165.0
 20
75.0
 30
0.0
  9
$LIMMIN
 10
0.0
 20
0.0
  9
$LIMMAX
 10
297.0
 20
210.0
  9
$ORTHOMODE
 70
     0
  9
$REGENMODE
 70
     1
  9
$FILLMODE
 70
     1
  9
$QTEXTMODE
 70
     0
  9
$MIRRTEXT
 70
     1
  9
$DRAGMODE
 70
     2
  9
$LTSCALE
 40
1.0
  9
$OSMODE
 70
    57
  9
$ATTMODE
 70
     1
  9
$TEXTSIZE
 40
6.4000000000000012
  9
$TRACEWID
 40
0.05
  9
$TEXTSTYLE
  7
STANDARD
  9
$CLAYER
  8
0
  9
$CELTYPE
  6
CONTINUOUS
  9
$CECOLOR
 62
     7
  9
$DIMSCALE
 40
1.0
  9
$DIMASZ
 40
3.0
  9
$DIMEXO
 40
1.0
  9
$DIMDLI
 40
0.0
  9
$DIMRND
 40
0.0
  9
$DIMDLE
 40
0.0
  9
$DIMEXE
 40
1.0
  9
$DIMTP
 40
0.0
  9
$DIMTM
 40
0.0
  9
$DIMTXT
 40
3.2000000000000002
  9
$DIMCEN
 40
0.0
  9
$DIMTSZ
 40
0.0
  9
$DIMTOL
 70
     0
  9
$DIMLIM
 70
     0
  9
$DIMTIH
 70
     0
  9
$DIMTOH
 70
     0
  9
$DIMSE1
 70
     0
  9
$DIMSE2
 70
     0
  9
$DIMTAD
 70
     1
  9
$DIMZIN
 70
     8
  9
$DIMBLK
  1

  9
$DIMASO
 70
     1
  9
$DIMSHO
 70
     1
  9
$DIMPOST
  1

  9
$DIMAPOST
  1

  9
$DIMALT
 70
     0
  9
$DIMALTD
 70
     2
  9
$DIMALTF
 40
0.04
  9
$DIMLFAC
 40
1.0
  9
$DIMTOFL
 70
     1
  9
$DIMTVP
 40
1.0
  9
$DIMTIX
 70
     1
  9
$DIMSOXD
 70
     0
  9
$DIMSAH
 70
     0
  9
$DIMBLK1
  1

  9
$DIMBLK2
  1

  9
$DIMSTYLE
  2
MISUMI
  9
$DIMCLRD
 70
     0
  9
$DIMCLRE
 70
     0
  9
$DIMCLRT
 70
     0
  9
$DIMTFAC
 40
0.6
  9
$DIMGAP
 40
1.0
  9
$LUNITS
 70
     2
  9
$LUPREC
 70
     4
  9
$SKETCHINC
 40
0.1
  9
$FILLETRAD
 40
0.0
  9
$AUNITS
 70
     0
  9
$AUPREC
 70
     0
  9
$MENU
  1
acad
  9
$ELEVATION
 40
0.0
  9
$PELEVATION
 40
0.0
  9
$THICKNESS
 40
0.0
  9
$LIMCHECK
 70
     0
  9
$BLIPMODE
 70
     1
  9
$CHAMFERA
 40
0.5
  9
$CHAMFERB
 40
0.5
  9
$SKPOLY
 70
     0
  9
$TDCREATE
 40
2453627.5934854168
  9
$TDUPDATE
 40
2453776.7003481248
  9
$TDINDWG
 40
0.0079219329
  9
$TDUSRTIMER
 40
0.0079219329
  9
$USRTIMER
 70
     1
  9
$ANGBASE
 50
0.0
  9
$ANGDIR
 70
     0
  9
$PDMODE
 70
     0
  9
$PDSIZE
 40
0.0
  9
$PLINEWID
 40
0.0
  9
$COORDS
 70
     0
  9
$SPLFRAME
 70
     0
  9
$SPLINETYPE
 70
     6
  9
$SPLINESEGS
 70
     8
  9
$ATTDIA
 70
     0
  9
$ATTREQ
 70
     1
  9
$HANDLING
 70
     1
  9
$HANDSEED
  5
AFD
  9
$SURFTAB1
 70
     6
  9
$SURFTAB2
 70
     6
  9
$SURFTYPE
 70
     6
  9
$SURFU
 70
     6
  9
$SURFV
 70
     6
  9
$UCSNAME
  2

  9
$UCSORG
 10
0.0
 20
0.0
 30
0.0
  9
$UCSXDIR
 10
1.0
 20
0.0
 30
0.0
  9
$UCSYDIR
 10
0.0
 20
1.0
 30
0.0
  9
$PUCSNAME
  2

  9
$PUCSORG
 10
0.0
 20
0.0
 30
0.0
  9
$PUCSXDIR
 10
1.0
 20
0.0
 30
0.0
  9
$PUCSYDIR
 10
0.0
 20
1.0
 30
0.0
  9
$USERI1
 70
     0
  9
$USERI2
 70
     0
  9
$USERI3
 70
     0
  9
$USERI4
 70
     0
  9
$USERI5
 70
     0
  9
$USERR1
 40
0.0
  9
$USERR2
 40
0.0
  9
$USERR3
 40
0.0
  9
$USERR4
 40
0.0
  9
$USERR5
 40
0.0
  9
$WORLDVIEW
 70
     1
  9
$SHADEDGE
 70
     3
  9
$SHADEDIF
 70
    70
  9
$TILEMODE
 70
     1
  9
$MAXACTVP
 70
    16
  9
$PLIMCHECK
 70
     0
  9
$PEXTMIN
 10
1.0000000000000000E+020
 20
1.0000000000000000E+020
 30
1.0000000000000000E+020
  9
$PEXTMAX
 10
-1.0000000000000000E+020
 20
-1.0000000000000000E+020
 30
-1.0000000000000000E+020
  9
$PLIMMIN
 10
0.0
 20
0.0
  9
$PLIMMAX
 10
12.0
 20
9.0
  9
$UNITMODE
 70
     0
  9
$VISRETAIN
 70
     0
  9
$PLINEGEN
 70
     0
  9
$PSLTSCALE
 70
     1
  0
ENDSEC
  0
SECTION
  2
TABLES
  0
TABLE
  2
VPORT
 70
     2
  0
VPORT
  2
*ACTIVE
 70
     0
 10
0.0
 20
0.0
 11
1.0
 21
1.0
 12
81.099119467783737
 22
37.028345488633292
 13
0.0
 23
0.0
 14
10.0
 24
10.0
 15
10.0
 25
10.0
 16
0.0
 26
0.0
 36
1.0
 17
0.0
 27
0.0
 37
0.0
 40
127.5211282923986
 41
1.5717852684144811
 42
50.0
 43
0.0
 44
0.0
 50
0.0
 51
0.0
 71
     0
 72
   100
 73
     1
 74
     0
 75
     0
 76
     0
 77
     0
 78
     0
  0
ENDTAB
  0
TABLE
  2
LTYPE
 70
     3
  0
LTYPE
  2
CONTINUOUS
 70
     0
  3
Solid line
 72
    65
 73
     0
 40
0.0
  0
LTYPE
  2
CENTER
 70
     0
  3
Center ____ _ ____ _ ____ _ ____ _ ____ _ ____
 72
    65
 73
     4
 40
2.0
 49
1.25
 49
-0.25
 49
0.25
 49
-0.25
  0
LTYPE
  2
DASHED
 70
     0
  3
Dashed __ __ __ __ __ __ __ __ __ __ __ __ __ _
 72
    65
 73
     2
 40
0.75
 49
0.5
 49
-0.25
  0
ENDTAB
  0
TABLE
  2
LAYER
 70
     2
  0
LAYER
  2
0
 70
     0
 62
     7
  6
CONTINUOUS
  0
LAYER
  2
CENTER
 70
     0
 62
     1
  6
CENTER
  0
ENDTAB
  0
TABLE
  2
STYLE
 70
     1
  0
STYLE
  2
STANDARD
 70
     0
 40
0.0
 41
1.0
 50
0.0
 71
     0
 42
6.4000000000000012
  3
txt
  4

  0
ENDTAB
  0
TABLE
  2
VIEW
 70
     0
  0
ENDTAB
  0
TABLE
  2
UCS
 70
     0
  0
ENDTAB
  0
TABLE
  2
APPID
 70
     3
  0
APPID
  2
ACAD
 70
     0
  0
APPID
  2
ACAD_DSTYLE_DIMTEXT_FILL
 70
     0
  0
APPID
  2
ACAD_PSEXT
 70
     0
  0
ENDTAB
  0
TABLE
  2
DIMSTYLE
 70
     1
  0
DIMSTYLE
  2
MISUMI
 70
     0
  3

  4

  5

  6

  7

 40
1.0
 41
3.0
 42
1.0
 43
0.0
 44
1.0
 45
0.0
 46
0.0
 47
0.0
 48
0.0
140
3.2000000000000002
141
0.0
142
0.0
143
0.04
144
1.0
145
1.0
146
0.6
147
1.0
 71
     0
 72
     0
 73
     0
 74
     0
 75
     0
 76
     0
 77
     1
 78
     8
170
     0
171
     2
172
     1
173
     0
174
     1
175
     0
176
     0
177
     0
178
     0
  0
ENDTAB
  0
ENDSEC
  0
SECTION
  2
BLOCKS
  0
BLOCK
  8
0
  2
$MODEL_SPACE
 70
     0
 10
0.0
 20
0.0
 30
0.0
  3
$MODEL_SPACE
  1

  0
ENDBLK
  5
8EF
  8
0
  0
BLOCK
 67
     1
  8
0
  2
$PAPER_SPACE
 70
     0
 10
0.0
 20
0.0
 30
0.0
  3
$PAPER_SPACE
  1

  0
ENDBLK
  5
8EB
 67
     1
  8
0
  0
ENDSEC
  0
SECTION
  2
ENTITIES
  0
LINE
  5
500
  8
0
  6
CONTINUOUS
 62
     7
 10
160.0
 20
30.000000000000071
 30
0.0
 11
160.0
 21
69.999999999999972
 31
0.0
  0
LINE
  5
511
  8
0
  6
CONTINUOUS
 62
     7
 10
110.0
 20
69.999999999999972
 30
0.0
 11
110.0
 21
30.000000000000071
 31
0.0
  0
LINE
  5
512
  8
0
  6
CONTINUOUS
 62
     7
 10
160.0
 20
30.000000000000071
 30
0.0
 11
110.0
 21
30.000000000000071
 31
0.0
  0
LINE
  5
513
  8
0
  6
CONTINUOUS
 62
     7
 10
110.0
 20
55.0
 30
0.0
 11
160.0
 21
55.0
 31
0.0
  0
LINE
  5
514
  8
0
  6
CONTINUOUS
 62
     7
 10
110.0
 20
44.999999999999993
 30
0.0
 11
160.0
 21
44.999999999999993
 31
0.0
  0
LINE
  5
515
  8
0
  6
CONTINUOUS
 62
     7
 10
160.0
 20
69.999999999999972
 30
0.0
 11
110.0
 21
69.999999999999972
 31
0.0
  0
TEXT
  5
568
  8
0
  6
CONTINUOUS
 62
     7
 10
0.0000001405201715
 20
0.0000000721678361
 30
0.0
 40
4.0
  1
HFS84040
  0
TEXT
  5
569
  8
0
  6
CONTINUOUS
 62
     7
 10
0.0000001405201715
 20
8.0161282380574903
 30
0.0
 40
4.0
  1
HFS8-4040-50
  0
LINE
  5
585
  8
CENTER
  6
CENTER
 62
     1
 10
105.0
 20
50.0
 30
0.0
 11
165.0
 21
50.000000000000021
 31
0.0
  0
LINE
  5
592
  8
0
  6
CONTINUOUS
 62
     7
 10
110.0
 20
50.519615742272471
 30
0.0
 11
160.0
 21
50.519615742272471
 31
0.0
  0
LINE
  5
593
  8
0
  6
CONTINUOUS
 62
     7
 10
110.0
 20
49.480384757729311
 30
0.0
 11
160.0
 21
49.480384757729311
 31
0.0
  0
LINE
  5
6DC
  8
0
  6
DASHED
 62
     3
 10
110.0
 20
60.0
 30
0.0
 11
160.0
 21
60.000000000000021
 31
0.0
  0
LINE
  5
6DD
  8
0
  6
DASHED
 62
     3
 10
110.0
 20
40.0
 30
0.0
 11
160.0
 21
40.0
 31
0.0
  0
LINE
  5
A70
  8
0
  6
CONTINUOUS
 62
     7
 10
37.0
 20
68.0
 30
0.0
 11
32.999999999999893
 21
68.0
 31
0.0
  0
ARC
  5
A71
  8
0
  6
CONTINUOUS
 62
     7
 10
69.699996999999939
 20
55.300003000000061
 30
0.0
 40
0.3
 50
269.99997000000019
 51
0.000019999998756
  0
LINE
  5
A72
  8
0
  6
CONTINUOUS
 62
     7
 10
69.699996999999939
 20
55.0
 30
0.0
 11
64.5
 21
55.0
 31
0.0
  0
LINE
  5
A73
  8
0
  6
CONTINUOUS
 62
     7
 10
64.5
 20
60.0
 30
0.0
 11
64.5
 21
55.0
 31
0.0
  0
LINE
  5
A74
  8
0
  6
CONTINUOUS
 62
     7
 10
70.0
 20
67.000000999999884
 30
0.0
 11
70.0
 21
55.300003000000061
 31
0.0
  0
LINE
  5
A75
  8
0
  6
CONTINUOUS
 62
     7
 10
68.0
 20
67.000000000000057
 30
0.0
 11
68.0
 21
63.000000000000171
 31
0.0
  0
ARC
  5
A76
  8
0
  6
CONTINUOUS
 62
     7
 10
67.0
 20
67.000000000000057
 30
0.0
 40
1.0
 50
0.0
 51
90.0
  0
ARC
  5
A77
  8
0
  6
CONTINUOUS
 62
     7
 10
69.699996999999939
 20
44.699997000000053
 30
0.0
 40
0.3
 50
359.999979999998
 51
90.000029999999754
  0
LINE
  5
A78
  8
0
  6
CONTINUOUS
 62
     7
 10
64.5
 20
40.000000000000107
 30
0.0
 11
64.5
 21
45.0
 31
0.0
  0
LINE
  5
A79
  8
0
  6
CONTINUOUS
 62
     7
 10
69.699996999999939
 20
45.0
 30
0.0
 11
64.5
 21
45.0
 31
0.0
  0
LINE
  5
A7A
  8
0
  6
CONTINUOUS
 62
     7
 10
70.0
 20
33.000000000000107
 30
0.0
 11
70.0
 21
44.699997000000053
 31
0.0
  0
LINE
  5
A7B
  8
0
  6
CONTINUOUS
 62
     7
 10
68.0
 20
33.000000000000057
 30
0.0
 11
68.0
 21
37.000001000000111
 31
0.0
  0
ARC
  5
A7C
  8
0
  6
CONTINUOUS
 62
     7
 10
67.0
 20
37.000001000000111
 30
0.0
 40
1.0
 50
0.0
 51
90.0
  0
LINE
  5
A7D
  8
0
  6
CONTINUOUS
 62
     7
 10
33.0
 20
70.0
 30
0.0
 11
44.699996999999939
 21
70.0
 31
0.0
  0
ARC
  5
A7E
  8
0
  6
CONTINUOUS
 62
     7
 10
63.0
 20
62.99999600000001
 30
0.0
 40
1.0
 50
179.999989999999
 51
270.00000399999908
  0
LINE
  5
A7F
  8
0
  6
CONTINUOUS
 62
     7
 10
59.999999999999893
 20
64.5
 30
0.0
 11
59.999999999999893
 21
61.767777000000017
 31
0.0
  0
LINE
  5
A80
  8
0
  6
CONTINUOUS
 62
     7
 10
59.999999999999893
 20
64.5
 30
0.0
 11
55.0
 21
64.5
 31
0.0
  0
LINE
  5
A81
  8
0
  6
CONTINUOUS
 62
     7
 10
60.00000799999998
 20
61.767771000000039
 30
0.0
 11
55.732236999999778
 21
57.500000000000057
 31
0.0
  0
LINE
  5
A82
  8
0
  6
CONTINUOUS
 62
     7
 10
61.76777699999991
 20
60.0
 30
0.0
 11
57.499999999999893
 21
55.7322310000282
 31
0.0
  0
LINE
  5
A83
  8
0
  6
CONTINUOUS
 62
     7
 10
39.999999999999893
 20
64.5
 30
0.0
 11
39.999999999999893
 21
61.767777000000017
 31
0.0
  0
LINE
  5
A84
  8
0
  6
CONTINUOUS
 62
     7
 10
39.999999999999893
 20
64.5
 30
0.0
 11
45.0
 21
64.5
 31
0.0
  0
LINE
  5
A85
  8
0
  6
CONTINUOUS
 62
     7
 10
40.000014999999962
 20
61.767771000000039
 30
0.0
 11
44.267770999992891
 21
57.500000000000057
 31
0.0
  0
LINE
  5
A86
  8
0
  6
CONTINUOUS
 62
     7
 10
35.5
 20
59.999999999994543
 30
0.0
 11
38.232223999999967
 21
60.000001000000111
 31
0.0
  0
ARC
  5
A87
  8
0
  6
CONTINUOUS
 62
     7
 10
30.300002999999951
 20
55.300003000000061
 30
0.0
 40
0.3
 50
179.99997999999789
 51
270.0000249999992
  0
LINE
  5
A88
  8
0
  6
CONTINUOUS
 62
     7
 10
30.300002999999951
 20
55.0
 30
0.0
 11
35.500014999999962
 21
55.0
 31
0.0
  0
LINE
  5
A89
  8
0
  6
CONTINUOUS
 62
     7
 10
38.232230999999963
 20
60.000013000000081
 30
0.0
 11
42.5
 21
55.7322479999998
 31
0.0
  0
LINE
  5
A8A
  8
0
  6
CONTINUOUS
 62
     7
 10
35.5
 20
55.0
 30
0.0
 11
35.5
 21
59.999999999994543
 31
0.0
  0
LINE
  5
A8B
  8
0
  6
CONTINUOUS
 62
     7
 10
29.99999999999989
 20
67.000000999999884
 30
0.0
 11
29.99999999999989
 21
55.300003000000061
 31
0.0
  0
LINE
  5
A8C
  8
0
  6
CONTINUOUS
 62
     7
 10
31.99999999999989
 20
67.0
 30
0.0
 11
31.99999999999989
 21
63.0
 31
0.0
  0
LINE
  5
A8D
  8
0
  6
CONTINUOUS
 62
     7
 10
38.0
 20
67.0
 30
0.0
 11
38.0
 21
63.0
 31
0.0
  0
ARC
  5
A8E
  8
0
  6
CONTINUOUS
 62
     7
 10
37.0
 20
63.0
 30
0.0
 40
1.0
 50
270.0
 51
0.0
  0
ARC
  5
A8F
  8
0
  6
CONTINUOUS
 62
     7
 10
37.0
 20
67.0
 30
0.0
 40
1.0
 50
0.0
 51
90.0
  0
LINE
  5
A90
  8
0
  6
CONTINUOUS
 62
     7
 10
45.0
 20
69.699999999999932
 30
0.0
 11
45.0
 21
64.5
 31
0.0
  0
LINE
  5
A91
  8
0
  6
CONTINUOUS
 62
     7
 10
55.0
 20
69.699999999999974
 30
0.0
 11
55.0
 21
64.5
 31
0.0
  0
LINE
  5
A92
  8
0
  6
CONTINUOUS
 62
     7
 10
62.000000000000007
 20
67.000000000000057
 30
0.0
 11
62.0
 21
62.99999600000001
 31
0.0
  0
LINE
  5
A93
  8
0
  6
CONTINUOUS
 62
     7
 10
61.76777699999991
 20
40.000000000000107
 30
0.0
 11
57.499999999999893
 21
44.267769999975492
 31
0.0
  0
LINE
  5
A94
  8
0
  6
CONTINUOUS
 62
     7
 10
59.999999999999893
 20
35.499999999999943
 30
0.0
 11
59.999999999999893
 21
38.2322190000001
 31
0.0
  0
LINE
  5
A95
  8
0
  6
CONTINUOUS
 62
     7
 10
60.00000799999998
 20
38.232224999999971
 30
0.0
 11
55.732238000001431
 21
42.499999999999829
 31
0.0
  0
LINE
  5
A96
  8
0
  6
CONTINUOUS
 62
     7
 10
55.0
 20
30.300000000000011
 30
0.0
 11
55.0
 21
35.499999999999943
 31
0.0
  0
LINE
  5
A97
  8
0
  6
CONTINUOUS
 62
     7
 10
62.0
 20
33.0
 30
0.0
 11
62.000000000000007
 21
37.000001000000111
 31
0.0
  0
ARC
  5
A98
  8
0
  6
CONTINUOUS
 62
     7
 10
63.0
 20
33.0
 30
0.0
 40
1.0
 50
180.0
 51
270.0000000000004
  0
LINE
  5
A99
  8
0
  6
CONTINUOUS
 62
     7
 10
38.232230999999963
 20
39.999994000000022
 30
0.0
 11
42.499999999999879
 21
44.26775300000002
 31
0.0
  0
LINE
  5
A9A
  8
0
  6
CONTINUOUS
 62
     7
 10
39.999999999999893
 20
35.500000000000107
 30
0.0
 11
39.999999999999893
 21
38.232224000000087
 31
0.0
  0
LINE
  5
A9B
  8
0
  6
CONTINUOUS
 62
     7
 10
39.999999999999893
 20
35.500000000000107
 30
0.0
 11
45.0
 21
35.500000000000107
 31
0.0
  0
LINE
  5
A9C
  8
0
  6
CONTINUOUS
 62
     7
 10
44.267769999996517
 20
42.500000000000163
 30
0.0
 11
49.48038475772919
 21
42.500000000000107
 31
0.0
  0
LINE
  5
A9D
  8
0
  6
CONTINUOUS
 62
     7
 10
40.000014999999962
 20
38.232229999999959
 30
0.0
 11
44.267769999996517
 21
42.500000000000163
 31
0.0
  0
LINE
  5
A9E
  8
0
  6
CONTINUOUS
 62
     7
 10
35.5
 20
45.0
 30
0.0
 11
35.5
 21
40.000000000000107
 31
0.0
  0
ARC
  5
A9F
  8
0
  6
CONTINUOUS
 62
     7
 10
30.300002999999951
 20
44.699997000000053
 30
0.0
 40
0.3
 50
89.999975000000745
 51
180.0000199999987
  0
LINE
  5
AA0
  8
0
  6
CONTINUOUS
 62
     7
 10
30.300002999999951
 20
45.0
 30
0.0
 11
35.500014999999962
 21
45.0
 31
0.0
  0
LINE
  5
AA1
  8
0
  6
CONTINUOUS
 62
     7
 10
32.999999999999893
 20
37.999999999999829
 30
0.0
 11
37.000014999999962
 21
37.999999999999893
 31
0.0
  0
ARC
  5
AA2
  8
0
  6
CONTINUOUS
 62
     7
 10
36.999999999999893
 20
36.999994000000022
 30
0.0
 40
1.0
 50
0.0
 51
90.000003000000945
  0
LINE
  5
AA3
  8
0
  6
CONTINUOUS
 62
     7
 10
35.500014999999962
 20
40.000005999999871
 30
0.0
 11
38.232223999999967
 21
40.000005999999871
 31
0.0
  0
LINE
  5
AA4
  8
0
  6
CONTINUOUS
 62
     7
 10
32.999999999999893
 20
32.000000000000057
 30
0.0
 11
36.999999999999893
 21
32.000000000000121
 31
0.0
  0
ARC
  5
AA5
  8
0
  6
CONTINUOUS
 62
     7
 10
32.999999999999893
 20
33.000000000000057
 30
0.0
 40
1.0
 50
180.0
 51
270.0
  0
LINE
  5
AA6
  8
0
  6
CONTINUOUS
 62
     7
 10
33.0
 20
30.00000000000011
 30
0.0
 11
44.699996999999939
 21
30.00000000000011
 31
0.0
  0
ARC
  5
AA7
  8
0
  6
CONTINUOUS
 62
     7
 10
36.999999999999893
 20
33.000000000000107
 30
0.0
 40
1.0
 50
270.0
 51
0.0
  0
LINE
  5
AA8
  8
0
  6
CONTINUOUS
 62
     7
 10
29.99999999999989
 20
33.000000000000107
 30
0.0
 11
29.99999999999989
 21
44.699997000000053
 31
0.0
  0
LINE
  5
AA9
  8
0
  6
CONTINUOUS
 62
     7
 10
31.99999999999989
 20
33.000000000000057
 30
0.0
 11
31.99999999999989
 21
36.999999999999829
 31
0.0
  0
ARC
  5
AAA
  8
0
  6
CONTINUOUS
 62
     7
 10
32.999999999999893
 20
36.999999999999829
 30
0.0
 40
1.0
 50
90.0
 51
180.0
  0
LINE
  5
AAB
  8
0
  6
CONTINUOUS
 62
     7
 10
38.0
 20
33.000000000000107
 30
0.0
 11
38.0
 21
36.999994000000022
 31
0.0
  0
LINE
  5
AAC
  8
0
  6
CONTINUOUS
 62
     7
 10
45.0
 20
30.300000000000072
 30
0.0
 11
45.0
 21
35.500000000000107
 31
0.0
  0
LINE
  5
AAD
  8
CENTER
  6
CENTER
 62
     1
 10
50.0
 20
75.0
 30
0.0
 11
50.0
 21
25.0
 31
0.0
  0
LINE
  5
AAE
  8
0
  6
CONTINUOUS
 62
     7
 10
57.499999999999893
 20
55.7322310000282
 30
0.0
 11
57.499999999999893
 21
50.519615242270667
 31
0.0
  0
LINE
  5
AAF
  8
0
  6
CONTINUOUS
 62
     7
 10
67.0
 20
38.000001000000111
 30
0.0
 11
63.0
 21
38.000001000000111
 31
0.0
  0
ARC
  5
AB0
  8
0
  6
CONTINUOUS
 62
     7
 10
63.0
 20
37.000001000000111
 30
0.0
 40
1.0
 50
90.0
 51
180.0
  0
LINE
  5
AB1
  8
CENTER
  6
CENTER
 62
     1
 10
24.99999999999989
 20
50.0
 30
0.0
 11
75.0
 21
50.0
 31
0.0
  0
LINE
  5
AB2
  8
0
  6
CONTINUOUS
 62
     7
 10
64.5
 20
40.000000000000107
 30
0.0
 11
61.76777699999991
 21
39.999999000000123
 31
0.0
  0
LINE
  5
AB3
  8
0
  6
CONTINUOUS
 62
     7
 10
67.0
 20
62.000000000000171
 30
0.0
 11
62.99998499999981
 21
62.000000000000107
 31
0.0
  0
ARC
  5
AB4
  8
0
  6
CONTINUOUS
 62
     7
 10
67.0
 20
63.000000000000171
 30
0.0
 40
1.0
 50
270.0
 51
0.0
  0
LINE
  5
AB5
  8
0
  6
CONTINUOUS
 62
     7
 10
64.5
 20
60.0
 30
0.0
 11
61.76777699999991
 21
60.0
 31
0.0
  0
LINE
  5
AB6
  8
0
  6
CONTINUOUS
 62
     7
 10
42.499999999999879
 20
44.26775300000002
 30
0.0
 11
42.499999999999879
 21
49.480384757729382
 31
0.0
  0
ARC
  5
AB7
  8
0
  6
CONTINUOUS
 62
     7
 10
32.999999999999893
 20
33.0
 30
0.0
 40
3.0
 50
179.9999999999967
 51
270.0
  0
ARC
  5
AB8
  8
0
  6
CONTINUOUS
 62
     7
 10
44.699999999999932
 20
30.300000000000178
 30
0.0
 40
0.3
 50
269.99999999999682
 51
359.99999999999352
  0
LINE
  5
AB9
  8
0
  6
CONTINUOUS
 62
     7
 10
37.0
 20
62.0
 30
0.0
 11
32.999999999999893
 21
62.0
 31
0.0
  0
ARC
  5
ABA
  8
0
  6
CONTINUOUS
 62
     7
 10
32.999999999999893
 20
63.0
 30
0.0
 40
1.0
 50
180.0
 51
270.0
  0
ARC
  5
ABB
  8
0
  6
CONTINUOUS
 62
     7
 10
32.999999999999893
 20
67.0
 30
0.0
 40
1.0
 50
90.0
 51
180.0
  0
ARC
  5
ABC
  8
0
  6
CONTINUOUS
 62
     7
 10
44.699999999999932
 20
69.699999999999932
 30
0.0
 40
0.3
 50
0.0
 51
90.0
  0
ARC
  5
ABD
  8
0
  6
CONTINUOUS
 62
     7
 10
32.999999999999893
 20
67.0
 30
0.0
 40
3.0
 50
90.0
 51
180.0
  0
LINE
  5
ABE
  8
0
  6
CONTINUOUS
 62
     7
 10
44.267770999992891
 20
57.500000000000057
 30
0.0
 11
49.48038475772934
 21
57.499999999999943
 31
0.0
  0
LINE
  5
ABF
  8
0
  6
CONTINUOUS
 62
     7
 10
57.499999999999879
 20
49.480384757729269
 30
0.0
 11
57.499999999999893
 21
44.267769999975492
 31
0.0
  0
LINE
  5
AC0
  8
0
  6
CONTINUOUS
 62
     7
 10
42.499999999999879
 20
50.519615242270667
 30
0.0
 11
42.5
 21
55.7322479999998
 31
0.0
  0
LINE
  5
AC1
  8
0
  6
CONTINUOUS
 62
     7
 10
50.51961524227076
 20
57.5
 30
0.0
 11
55.732236999999778
 21
57.500000000000057
 31
0.0
  0
LINE
  5
AC2
  8
0
  6
CONTINUOUS
 62
     7
 10
55.299999999999997
 20
70.0
 30
0.0
 11
67.0
 21
70.0
 31
0.0
  0
LINE
  5
AC3
  8
0
  6
CONTINUOUS
 62
     7
 10
63.0
 20
68.000000000000057
 30
0.0
 11
67.0
 21
68.000000000000057
 31
0.0
  0
ARC
  5
AC4
  8
0
  6
CONTINUOUS
 62
     7
 10
63.0
 20
67.000000000000057
 30
0.0
 40
1.0
 50
90.000000000000398
 51
180.0
  0
LINE
  5
AC5
  8
0
  6
CONTINUOUS
 62
     7
 10
55.299999999999997
 20
30.0
 30
0.0
 11
67.0
 21
30.0
 31
0.0
  0
LINE
  5
AC6
  8
0
  6
CONTINUOUS
 62
     7
 10
63.0
 20
32.0
 30
0.0
 11
67.0
 21
32.000000000000057
 31
0.0
  0
ARC
  5
AC7
  8
0
  6
CONTINUOUS
 62
     7
 10
67.0
 20
33.000000000000057
 30
0.0
 40
1.0
 50
270.0
 51
0.0
  0
LINE
  5
AC8
  8
0
  6
CONTINUOUS
 62
     7
 10
55.0
 20
35.499999999999943
 30
0.0
 11
59.999999999999893
 21
35.499999999999943
 31
0.0
  0
LINE
  5
AC9
  8
0
  6
CONTINUOUS
 62
     7
 10
50.519615242271023
 20
42.499999999999943
 30
0.0
 11
55.732238000001431
 21
42.499999999999829
 31
0.0
  0
ARC
  5
ACA
  8
0
  6
CONTINUOUS
 62
     7
 10
55.299999999999969
 20
30.300000000000011
 30
0.0
 40
0.3
 50
180.0
 51
270.00000000000409
  0
ARC
  5
ACB
  8
0
  6
CONTINUOUS
 62
     7
 10
55.299999999999969
 20
69.699999999999932
 30
0.0
 40
0.3
 50
89.999999999995936
 51
179.99999999999019
  0
ARC
  5
ACC
  8
0
  6
CONTINUOUS
 62
     7
 10
67.000000000000071
 20
33.000000000000057
 30
0.0
 40
3.0
 50
269.99999999999881
 51
0.0
  0
ARC
  5
ACD
  8
0
  6
CONTINUOUS
 62
     7
 10
67.000000000000043
 20
67.000000000000057
 30
0.0
 40
3.0
 50
0.0
 51
90.00000000000081
  0
LINE
  5
ACE
  8
0
  6
CONTINUOUS
 62
     7
 10
57.199999999999889
 20
50.0
 30
0.0
 11
57.499999999999893
 21
50.519615242270667
 31
0.0
  0
LINE
  5
ACF
  8
0
  6
CONTINUOUS
 62
     7
 10
57.199999999999889
 20
50.0
 30
0.0
 11
57.499999999999879
 21
49.480384757729269
 31
0.0
  0
LINE
  5
AD0
  8
0
  6
CONTINUOUS
 62
     7
 10
42.799999999999862
 20
50.0
 30
0.0
 11
42.499999999999879
 21
50.519615242270667
 31
0.0
  0
LINE
  5
AD1
  8
0
  6
CONTINUOUS
 62
     7
 10
42.799999999999862
 20
50.0
 30
0.0
 11
42.499999999999879
 21
49.480384757729382
 31
0.0
  0
LINE
  5
AD2
  8
0
  6
CONTINUOUS
 62
     7
 10
50.0
 20
57.199999999999982
 30
0.0
 11
49.48038475772934
 21
57.499999999999943
 31
0.0
  0
LINE
  5
AD3
  8
0
  6
CONTINUOUS
 62
     7
 10
50.0
 20
57.199999999999982
 30
0.0
 11
50.51961524227076
 21
57.5
 31
0.0
  0
LINE
  5
AD4
  8
0
  6
CONTINUOUS
 62
     7
 10
50.0
 20
42.800000000000118
 30
0.0
 11
49.48038475772919
 21
42.500000000000107
 31
0.0
  0
LINE
  5
AD5
  8
0
  6
CONTINUOUS
 62
     7
 10
50.0
 20
42.800000000000118
 30
0.0
 11
50.519615242271023
 21
42.499999999999943
 31
0.0
  0
ARC
  5
AD6
  8
0
  6
CONTINUOUS
 62
     7
 10
50.0
 20
50.0
 30
0.0
 40
5.25
 50
145.10417687969951
 51
214.8956829514531
  0
ARC
  5
AD7
  8
0
  6
CONTINUOUS
 62
     7
 10
50.0
 20
50.0
 30
0.0
 40
5.25
 50
235.1241634219698
 51
304.90144784151749
  0
ARC
  5
AD8
  8
0
  6
CONTINUOUS
 62
     7
 10
50.0
 20
50.0
 30
0.0
 40
5.25
 50
325.10629219833959
 51
34.894529543814571
  0
ARC
  5
AD9
  8
0
  6
CONTINUOUS
 62
     7
 10
50.0
 20
50.0
 30
0.0
 40
5.25
 50
55.105947865224778
 51
124.8924049826697
  0
ARC
  5
ADA
  8
0
  6
CONTINUOUS
 62
     7
 10
45.403804999999998
 20
54.596191699999963
 30
0.0
 40
0.9999999999999879
 50
0.552311016829934
 51
269.46052825526692
  0
ARC
  5
ADB
  8
0
  6
CONTINUOUS
 62
     7
 10
54.596190999999962
 20
54.596191699999963
 30
0.0
 40
1.0000000000000071
 50
270.67397267950531
 51
179.40884277937471
  0
ARC
  5
ADC
  8
0
  6
CONTINUOUS
 62
     7
 10
54.596190999999962
 20
45.403808000000019
 30
0.0
 40
0.9999999999999959
 50
180.5511520932387
 51
89.434432764241222
  0
ARC
  5
ADD
  8
0
  6
CONTINUOUS
 62
     7
 10
45.403804999999998
 20
45.403808000000019
 30
0.0
 40
0.9999999999999978
 50
90.565353636349883
 51
359.45081617641807
  0
ARC
  5
ADE
  8
0
  6
CONTINUOUS
 62
     7
 10
45.377835046910171
 20
53.215769599541993
 30
0.0
 40
0.3808264096536704
 50
326.11566002318261
 51
87.508565883904495
  0
ARC
  5
ADF
  8
0
  6
CONTINUOUS
 62
     7
 10
46.784229851080312
 20
54.622165502063858
 30
0.0
 40
0.3808217809884606
 50
182.4582994544761
 51
303.9314775976984
  0
ARC
  5
AE0
  8
0
  6
CONTINUOUS
 62
     7
 10
54.622092783224602
 20
53.21576282880676
 30
0.0
 40
0.3807606617115995
 50
92.128087529203285
 51
213.9073820740943
  0
ARC
  5
AE1
  8
0
  6
CONTINUOUS
 62
     7
 10
53.215763159741002
 20
54.622143451037118
 30
0.0
 40
0.3808021444550061
 50
236.09024848315661
 51
357.64699087591572
  0
ARC
  5
AE2
  8
0
  6
CONTINUOUS
 62
     7
 10
45.377843017490193
 20
46.78423567513817
 30
0.0
 40
0.3808166255373677
 50
272.42227429051741
 51
33.886281829396459
  0
ARC
  5
AE3
  8
0
  6
CONTINUOUS
 62
     7
 10
46.784194432860588
 20
45.377874336845927
 30
0.0
 40
0.3807864908439521
 50
55.832352679473303
 51
177.53929807449001
  0
ARC
  5
AE4
  8
0
  6
CONTINUOUS
 62
     7
 10
54.622155498808851
 20
46.784232875609632
 30
0.0
 40
0.3808138140663438
 50
146.08601832442699
 51
267.57789026116029
  0
ARC
  5
AE5
  8
0
  6
CONTINUOUS
 62
     7
 10
53.215766253879629
 20
45.377849903700508
 30
0.0
 40
0.380821675444561
 50
2.4589808602880581
 51
123.80763812621581
  0
ENDSEC
  0
EOF
