solid OpenSCAD_Model
  facet normal 0 0 -1
    outer loop
      vertex -4.1 0 -3
      vertex -4.02122 0.79987 -3
      vertex -4.02122 -0.79987 -3
    endloop
  endfacet
  facet normal 0 0 -1
    outer loop
      vertex -4.02122 -0.79987 -3
      vertex -4.02122 0.79987 -3
      vertex -3.78791 1.569 -3
    endloop
  endfacet
  facet normal 0 0 -1
    outer loop
      vertex -4.02122 -0.79987 -3
      vertex -3.78791 1.569 -3
      vertex -3.40902 2.27784 -3
    endloop
  endfacet
  facet normal 0 0 -1
    outer loop
      vertex -4.02122 -0.79987 -3
      vertex -3.40902 2.27784 -3
      vertex -2.89914 2.89914 -3
    endloop
  endfacet
  facet normal 0 0 -1
    outer loop
      vertex -4.02122 -0.79987 -3
      vertex -2.89914 2.89914 -3
      vertex -2.27784 3.40902 -3
    endloop
  endfacet
  facet normal 0 0 -1
    outer loop
      vertex -4.02122 -0.79987 -3
      vertex -2.27784 3.40902 -3
      vertex -1.569 3.78791 -3
    endloop
  endfacet
  facet normal 0 0 -1
    outer loop
      vertex -2.15668 2.15668 -3
      vertex -1.569 3.78791 -3
      vertex -0.79987 4.02122 -3
    endloop
  endfacet
  facet normal 0 0 -1
    outer loop
      vertex -1.16718 2.81783 -3
      vertex -0.79987 4.02122 -3
      vertex 0 4.1 -3
    endloop
  endfacet
  facet normal 0 0 -1
    outer loop
      vertex -0.595025 2.99139 -3
      vertex 0 4.1 -3
      vertex 0.79987 4.02122 -3
    endloop
  endfacet
  facet normal 0 0 -1
    outer loop
      vertex 0.595025 2.99139 -3
      vertex 0.79987 4.02122 -3
      vertex 1.569 3.78791 -3
    endloop
  endfacet
  facet normal 0 0 -1
    outer loop
      vertex 1.16718 2.81783 -3
      vertex 1.569 3.78791 -3
      vertex 2.27784 3.40902 -3
    endloop
  endfacet
  facet normal 0 0 -1
    outer loop
      vertex 1.69449 2.53598 -3
      vertex 2.27784 3.40902 -3
      vertex 2.89914 2.89914 -3
    endloop
  endfacet
  facet normal 0 0 -1
    outer loop
      vertex 2.15668 2.15668 -3
      vertex 2.89914 2.89914 -3
      vertex 3.40902 2.27784 -3
    endloop
  endfacet
  facet normal 0 0 -1
    outer loop
      vertex 2.53598 1.69449 -3
      vertex 3.40902 2.27784 -3
      vertex 3.78791 1.569 -3
    endloop
  endfacet
  facet normal 0 0 -1
    outer loop
      vertex 2.81783 1.16718 -3
      vertex 3.78791 1.569 -3
      vertex 4.02122 0.79987 -3
    endloop
  endfacet
  facet normal 0 0 -1
    outer loop
      vertex 3.05 0 -3
      vertex 4.02122 0.79987 -3
      vertex 4.1 0 -3
    endloop
  endfacet
  facet normal 0 0 -1
    outer loop
      vertex 2.99139 -0.595025 -3
      vertex 4.1 0 -3
      vertex 4.02122 -0.79987 -3
    endloop
  endfacet
  facet normal 0 0 -1
    outer loop
      vertex 2.81783 -1.16718 -3
      vertex 4.02122 -0.79987 -3
      vertex 3.78791 -1.569 -3
    endloop
  endfacet
  facet normal 0 0 -1
    outer loop
      vertex 2.53598 -1.69449 -3
      vertex 3.78791 -1.569 -3
      vertex 3.40902 -2.27784 -3
    endloop
  endfacet
  facet normal 0 0 -1
    outer loop
      vertex 2.15668 -2.15668 -3
      vertex 3.40902 -2.27784 -3
      vertex 2.89914 -2.89914 -3
    endloop
  endfacet
  facet normal 0 0 -1
    outer loop
      vertex 1.16718 -2.81783 -3
      vertex 2.89914 -2.89914 -3
      vertex 2.27784 -3.40902 -3
    endloop
  endfacet
  facet normal 0 0 -1
    outer loop
      vertex 0.595025 -2.99139 -3
      vertex 2.27784 -3.40902 -3
      vertex 1.569 -3.78791 -3
    endloop
  endfacet
  facet normal 0 0 -1
    outer loop
      vertex -0.595025 -2.99139 -3
      vertex 1.569 -3.78791 -3
      vertex 0.79987 -4.02122 -3
    endloop
  endfacet
  facet normal 0 0 -1
    outer loop
      vertex -1.69449 -2.53598 -3
      vertex 0.79987 -4.02122 -3
      vertex 0 -4.1 -3
    endloop
  endfacet
  facet normal 0 0 -1
    outer loop
      vertex -4.02122 -0.79987 -3
      vertex 0 -4.1 -3
      vertex -0.79987 -4.02122 -3
    endloop
  endfacet
  facet normal 0 0 -1
    outer loop
      vertex -4.02122 -0.79987 -3
      vertex -0.79987 -4.02122 -3
      vertex -1.569 -3.78791 -3
    endloop
  endfacet
  facet normal 0 0 -1
    outer loop
      vertex -4.02122 -0.79987 -3
      vertex -1.569 -3.78791 -3
      vertex -2.27784 -3.40902 -3
    endloop
  endfacet
  facet normal 0 0 -1
    outer loop
      vertex -4.02122 -0.79987 -3
      vertex -2.27784 -3.40902 -3
      vertex -2.89914 -2.89914 -3
    endloop
  endfacet
  facet normal 0 0 -1
    outer loop
      vertex -4.02122 -0.79987 -3
      vertex -2.89914 -2.89914 -3
      vertex -3.40902 -2.27784 -3
    endloop
  endfacet
  facet normal 0 0 -1
    outer loop
      vertex -4.02122 -0.79987 -3
      vertex -3.40902 -2.27784 -3
      vertex -3.78791 -1.569 -3
    endloop
  endfacet
  facet normal 0 0 -1
    outer loop
      vertex -2.99139 -0.595025 -3
      vertex -4.02122 -0.79987 -3
      vertex -3.05 0 -3
    endloop
  endfacet
  facet normal 0 0 -1
    outer loop
      vertex 2.81783 -1.16718 -3
      vertex 3.78791 -1.569 -3
      vertex 2.53598 -1.69449 -3
    endloop
  endfacet
  facet normal 0 0 -1
    outer loop
      vertex -2.81783 -1.16718 -3
      vertex -4.02122 -0.79987 -3
      vertex -2.99139 -0.595025 -3
    endloop
  endfacet
  facet normal 0 0 -1
    outer loop
      vertex -2.53598 -1.69449 -3
      vertex -4.02122 -0.79987 -3
      vertex -2.81783 -1.16718 -3
    endloop
  endfacet
  facet normal 0 0 -1
    outer loop
      vertex -2.15668 -2.15668 -3
      vertex -4.02122 -0.79987 -3
      vertex -2.53598 -1.69449 -3
    endloop
  endfacet
  facet normal 0 0 -1
    outer loop
      vertex -0.595025 -2.99139 -3
      vertex 0.79987 -4.02122 -3
      vertex -1.16718 -2.81783 -3
    endloop
  endfacet
  facet normal 0 0 -1
    outer loop
      vertex -4.02122 -0.79987 -3
      vertex -2.15668 -2.15668 -3
      vertex 0 -4.1 -3
    endloop
  endfacet
  facet normal 0 0 -1
    outer loop
      vertex -1.16718 -2.81783 -3
      vertex 0.79987 -4.02122 -3
      vertex -1.69449 -2.53598 -3
    endloop
  endfacet
  facet normal 0 0 -1
    outer loop
      vertex -2.15668 -2.15668 -3
      vertex -1.69449 -2.53598 -3
      vertex 0 -4.1 -3
    endloop
  endfacet
  facet normal 0 0 -1
    outer loop
      vertex 0 -3.05 -3
      vertex 1.569 -3.78791 -3
      vertex -0.595025 -2.99139 -3
    endloop
  endfacet
  facet normal 0 0 -1
    outer loop
      vertex 0.595025 -2.99139 -3
      vertex 1.569 -3.78791 -3
      vertex 0 -3.05 -3
    endloop
  endfacet
  facet normal 0 0 -1
    outer loop
      vertex 1.69449 -2.53598 -3
      vertex 2.89914 -2.89914 -3
      vertex 1.16718 -2.81783 -3
    endloop
  endfacet
  facet normal 0 0 -1
    outer loop
      vertex 2.15668 -2.15668 -3
      vertex 2.89914 -2.89914 -3
      vertex 1.69449 -2.53598 -3
    endloop
  endfacet
  facet normal 0 0 -1
    outer loop
      vertex 1.16718 -2.81783 -3
      vertex 2.27784 -3.40902 -3
      vertex 0.595025 -2.99139 -3
    endloop
  endfacet
  facet normal 0 0 -1
    outer loop
      vertex 2.99139 0.595025 -3
      vertex 4.02122 0.79987 -3
      vertex 3.05 0 -3
    endloop
  endfacet
  facet normal 0 0 -1
    outer loop
      vertex 2.53598 1.69449 -3
      vertex 3.78791 1.569 -3
      vertex 2.81783 1.16718 -3
    endloop
  endfacet
  facet normal 0 0 -1
    outer loop
      vertex 2.81783 1.16718 -3
      vertex 4.02122 0.79987 -3
      vertex 2.99139 0.595025 -3
    endloop
  endfacet
  facet normal 0 0 -1
    outer loop
      vertex 3.05 0 -3
      vertex 4.1 0 -3
      vertex 2.99139 -0.595025 -3
    endloop
  endfacet
  facet normal 0 0 -1
    outer loop
      vertex 2.99139 -0.595025 -3
      vertex 4.02122 -0.79987 -3
      vertex 2.81783 -1.16718 -3
    endloop
  endfacet
  facet normal 0 0 -1
    outer loop
      vertex 0 3.05 -3
      vertex 0.79987 4.02122 -3
      vertex 0.595025 2.99139 -3
    endloop
  endfacet
  facet normal 0 0 -1
    outer loop
      vertex -0.595025 2.99139 -3
      vertex 0.79987 4.02122 -3
      vertex 0 3.05 -3
    endloop
  endfacet
  facet normal 0 0 -1
    outer loop
      vertex 0.595025 2.99139 -3
      vertex 1.569 3.78791 -3
      vertex 1.16718 2.81783 -3
    endloop
  endfacet
  facet normal 0 0 -1
    outer loop
      vertex -1.69449 2.53598 -3
      vertex -0.79987 4.02122 -3
      vertex -1.16718 2.81783 -3
    endloop
  endfacet
  facet normal 0 0 -1
    outer loop
      vertex -2.53598 1.69449 -3
      vertex -1.569 3.78791 -3
      vertex -2.15668 2.15668 -3
    endloop
  endfacet
  facet normal 0 0 -1
    outer loop
      vertex -2.99139 0.595025 -3
      vertex -4.02122 -0.79987 -3
      vertex -2.81783 1.16718 -3
    endloop
  endfacet
  facet normal 0 0 -1
    outer loop
      vertex -4.02122 -0.79987 -3
      vertex -1.569 3.78791 -3
      vertex -2.53598 1.69449 -3
    endloop
  endfacet
  facet normal 0 0 -1
    outer loop
      vertex -4.02122 -0.79987 -3
      vertex -2.53598 1.69449 -3
      vertex -2.81783 1.16718 -3
    endloop
  endfacet
  facet normal 0 0 -1
    outer loop
      vertex 1.16718 2.81783 -3
      vertex 2.27784 3.40902 -3
      vertex 1.69449 2.53598 -3
    endloop
  endfacet
  facet normal 0 0 -1
    outer loop
      vertex -3.05 0 -3
      vertex -4.02122 -0.79987 -3
      vertex -2.99139 0.595025 -3
    endloop
  endfacet
  facet normal 0 0 -1
    outer loop
      vertex -2.15668 2.15668 -3
      vertex -0.79987 4.02122 -3
      vertex -1.69449 2.53598 -3
    endloop
  endfacet
  facet normal 0 0 -1
    outer loop
      vertex -1.16718 2.81783 -3
      vertex 0 4.1 -3
      vertex -0.595025 2.99139 -3
    endloop
  endfacet
  facet normal 0 0 -1
    outer loop
      vertex 1.69449 2.53598 -3
      vertex 2.89914 2.89914 -3
      vertex 2.15668 2.15668 -3
    endloop
  endfacet
  facet normal 0 0 -1
    outer loop
      vertex 2.15668 2.15668 -3
      vertex 3.40902 2.27784 -3
      vertex 2.53598 1.69449 -3
    endloop
  endfacet
  facet normal 0 0 -1
    outer loop
      vertex 2.53598 -1.69449 -3
      vertex 3.40902 -2.27784 -3
      vertex 2.15668 -2.15668 -3
    endloop
  endfacet
  facet normal -0.995185 0.0980167 0
    outer loop
      vertex -4.1 0 -3
      vertex -4.1 0 3
      vertex -4.02122 0.79987 -3
    endloop
  endfacet
  facet normal -0.995185 0.0980167 0
    outer loop
      vertex -4.02122 0.79987 -3
      vertex -4.1 0 3
      vertex -4.02122 0.79987 3
    endloop
  endfacet
  facet normal -0.995185 -0.0980167 0
    outer loop
      vertex -4.1 0 -3
      vertex -4.02122 -0.79987 -3
      vertex -4.1 0 3
    endloop
  endfacet
  facet normal -0.995185 -0.0980167 0
    outer loop
      vertex -4.1 0 3
      vertex -4.02122 -0.79987 -3
      vertex -4.02122 -0.79987 3
    endloop
  endfacet
  facet normal -0.95694 -0.290285 0
    outer loop
      vertex -4.02122 -0.79987 -3
      vertex -3.78791 -1.569 -3
      vertex -4.02122 -0.79987 3
    endloop
  endfacet
  facet normal -0.95694 -0.290285 0
    outer loop
      vertex -4.02122 -0.79987 3
      vertex -3.78791 -1.569 -3
      vertex -3.78791 -1.569 3
    endloop
  endfacet
  facet normal -0.881921 -0.471397 0
    outer loop
      vertex -3.78791 -1.569 -3
      vertex -3.40902 -2.27784 -3
      vertex -3.78791 -1.569 3
    endloop
  endfacet
  facet normal -0.881921 -0.471397 0
    outer loop
      vertex -3.78791 -1.569 3
      vertex -3.40902 -2.27784 -3
      vertex -3.40902 -2.27784 3
    endloop
  endfacet
  facet normal -0.773011 -0.634393 0
    outer loop
      vertex -3.40902 -2.27784 -3
      vertex -2.89914 -2.89914 -3
      vertex -3.40902 -2.27784 3
    endloop
  endfacet
  facet normal -0.773011 -0.634393 0
    outer loop
      vertex -3.40902 -2.27784 3
      vertex -2.89914 -2.89914 -3
      vertex -2.89914 -2.89914 3
    endloop
  endfacet
  facet normal -0.634393 -0.773011 0
    outer loop
      vertex -2.89914 -2.89914 3
      vertex -2.89914 -2.89914 -3
      vertex -2.27784 -3.40902 -3
    endloop
  endfacet
  facet normal -0.634393 -0.773011 0
    outer loop
      vertex -2.27784 -3.40902 3
      vertex -2.89914 -2.89914 3
      vertex -2.27784 -3.40902 -3
    endloop
  endfacet
  facet normal -0.471397 -0.881921 0
    outer loop
      vertex -2.27784 -3.40902 3
      vertex -2.27784 -3.40902 -3
      vertex -1.569 -3.78791 -3
    endloop
  endfacet
  facet normal -0.471397 -0.881921 0
    outer loop
      vertex -1.569 -3.78791 3
      vertex -2.27784 -3.40902 3
      vertex -1.569 -3.78791 -3
    endloop
  endfacet
  facet normal -0.290285 -0.95694 0
    outer loop
      vertex -1.569 -3.78791 3
      vertex -1.569 -3.78791 -3
      vertex -0.79987 -4.02122 -3
    endloop
  endfacet
  facet normal -0.290285 -0.95694 0
    outer loop
      vertex -0.79987 -4.02122 3
      vertex -1.569 -3.78791 3
      vertex -0.79987 -4.02122 -3
    endloop
  endfacet
  facet normal -0.0980167 -0.995185 0
    outer loop
      vertex -0.79987 -4.02122 3
      vertex -0.79987 -4.02122 -3
      vertex 0 -4.1 -3
    endloop
  endfacet
  facet normal -0.0980167 -0.995185 0
    outer loop
      vertex 0 -4.1 3
      vertex -0.79987 -4.02122 3
      vertex 0 -4.1 -3
    endloop
  endfacet
  facet normal 0.0980167 -0.995185 0
    outer loop
      vertex 0 -4.1 3
      vertex 0 -4.1 -3
      vertex 0.79987 -4.02122 -3
    endloop
  endfacet
  facet normal 0.0980167 -0.995185 0
    outer loop
      vertex 0.79987 -4.02122 3
      vertex 0 -4.1 3
      vertex 0.79987 -4.02122 -3
    endloop
  endfacet
  facet normal 0.290285 -0.95694 0
    outer loop
      vertex 0.79987 -4.02122 3
      vertex 0.79987 -4.02122 -3
      vertex 1.569 -3.78791 -3
    endloop
  endfacet
  facet normal 0.290285 -0.95694 0
    outer loop
      vertex 1.569 -3.78791 3
      vertex 0.79987 -4.02122 3
      vertex 1.569 -3.78791 -3
    endloop
  endfacet
  facet normal 0.471397 -0.881921 0
    outer loop
      vertex 1.569 -3.78791 3
      vertex 1.569 -3.78791 -3
      vertex 2.27784 -3.40902 -3
    endloop
  endfacet
  facet normal 0.471397 -0.881921 0
    outer loop
      vertex 2.27784 -3.40902 3
      vertex 1.569 -3.78791 3
      vertex 2.27784 -3.40902 -3
    endloop
  endfacet
  facet normal 0.634393 -0.773011 0
    outer loop
      vertex 2.27784 -3.40902 3
      vertex 2.27784 -3.40902 -3
      vertex 2.89914 -2.89914 -3
    endloop
  endfacet
  facet normal 0.634393 -0.773011 0
    outer loop
      vertex 2.89914 -2.89914 3
      vertex 2.27784 -3.40902 3
      vertex 2.89914 -2.89914 -3
    endloop
  endfacet
  facet normal 0.773011 -0.634393 0
    outer loop
      vertex 2.89914 -2.89914 3
      vertex 2.89914 -2.89914 -3
      vertex 3.40902 -2.27784 -3
    endloop
  endfacet
  facet normal 0.773011 -0.634393 0
    outer loop
      vertex 3.40902 -2.27784 3
      vertex 2.89914 -2.89914 3
      vertex 3.40902 -2.27784 -3
    endloop
  endfacet
  facet normal 0.881921 -0.471397 0
    outer loop
      vertex 3.40902 -2.27784 3
      vertex 3.40902 -2.27784 -3
      vertex 3.78791 -1.569 -3
    endloop
  endfacet
  facet normal 0.881921 -0.471397 0
    outer loop
      vertex 3.78791 -1.569 3
      vertex 3.40902 -2.27784 3
      vertex 3.78791 -1.569 -3
    endloop
  endfacet
  facet normal 0.95694 -0.290285 0
    outer loop
      vertex 3.78791 -1.569 3
      vertex 3.78791 -1.569 -3
      vertex 4.02122 -0.79987 -3
    endloop
  endfacet
  facet normal 0.95694 -0.290285 0
    outer loop
      vertex 4.02122 -0.79987 3
      vertex 3.78791 -1.569 3
      vertex 4.02122 -0.79987 -3
    endloop
  endfacet
  facet normal 0.995185 -0.0980167 0
    outer loop
      vertex 4.02122 -0.79987 3
      vertex 4.02122 -0.79987 -3
      vertex 4.1 0 -3
    endloop
  endfacet
  facet normal 0.995185 -0.0980167 0
    outer loop
      vertex 4.1 0 3
      vertex 4.02122 -0.79987 3
      vertex 4.1 0 -3
    endloop
  endfacet
  facet normal 0.995185 0.0980167 0
    outer loop
      vertex 4.1 0 -3
      vertex 4.02122 0.79987 -3
      vertex 4.02122 0.79987 3
    endloop
  endfacet
  facet normal 0.995185 0.0980167 0
    outer loop
      vertex 4.1 0 3
      vertex 4.1 0 -3
      vertex 4.02122 0.79987 3
    endloop
  endfacet
  facet normal 0.95694 0.290285 0
    outer loop
      vertex 4.02122 0.79987 -3
      vertex 3.78791 1.569 -3
      vertex 3.78791 1.569 3
    endloop
  endfacet
  facet normal 0.95694 0.290285 0
    outer loop
      vertex 4.02122 0.79987 3
      vertex 4.02122 0.79987 -3
      vertex 3.78791 1.569 3
    endloop
  endfacet
  facet normal 0.881921 0.471397 0
    outer loop
      vertex 3.78791 1.569 -3
      vertex 3.40902 2.27784 -3
      vertex 3.40902 2.27784 3
    endloop
  endfacet
  facet normal 0.881921 0.471397 0
    outer loop
      vertex 3.78791 1.569 3
      vertex 3.78791 1.569 -3
      vertex 3.40902 2.27784 3
    endloop
  endfacet
  facet normal 0.773011 0.634393 0
    outer loop
      vertex 3.40902 2.27784 -3
      vertex 2.89914 2.89914 -3
      vertex 2.89914 2.89914 3
    endloop
  endfacet
  facet normal 0.773011 0.634393 0
    outer loop
      vertex 3.40902 2.27784 3
      vertex 3.40902 2.27784 -3
      vertex 2.89914 2.89914 3
    endloop
  endfacet
  facet normal 0.634393 0.773011 0
    outer loop
      vertex 2.27784 3.40902 -3
      vertex 2.27784 3.40902 3
      vertex 2.89914 2.89914 -3
    endloop
  endfacet
  facet normal 0.634393 0.773011 0
    outer loop
      vertex 2.89914 2.89914 -3
      vertex 2.27784 3.40902 3
      vertex 2.89914 2.89914 3
    endloop
  endfacet
  facet normal 0.471397 0.881921 0
    outer loop
      vertex 1.569 3.78791 -3
      vertex 1.569 3.78791 3
      vertex 2.27784 3.40902 -3
    endloop
  endfacet
  facet normal 0.471397 0.881921 0
    outer loop
      vertex 2.27784 3.40902 -3
      vertex 1.569 3.78791 3
      vertex 2.27784 3.40902 3
    endloop
  endfacet
  facet normal 0.290285 0.95694 0
    outer loop
      vertex 0.79987 4.02122 -3
      vertex 0.79987 4.02122 3
      vertex 1.569 3.78791 -3
    endloop
  endfacet
  facet normal 0.290285 0.95694 0
    outer loop
      vertex 1.569 3.78791 -3
      vertex 0.79987 4.02122 3
      vertex 1.569 3.78791 3
    endloop
  endfacet
  facet normal 0.0980167 0.995185 0
    outer loop
      vertex 0 4.1 -3
      vertex 0 4.1 3
      vertex 0.79987 4.02122 -3
    endloop
  endfacet
  facet normal 0.0980167 0.995185 0
    outer loop
      vertex 0.79987 4.02122 -3
      vertex 0 4.1 3
      vertex 0.79987 4.02122 3
    endloop
  endfacet
  facet normal -0.0980167 0.995185 0
    outer loop
      vertex -0.79987 4.02122 -3
      vertex -0.79987 4.02122 3
      vertex 0 4.1 -3
    endloop
  endfacet
  facet normal -0.0980167 0.995185 0
    outer loop
      vertex 0 4.1 -3
      vertex -0.79987 4.02122 3
      vertex 0 4.1 3
    endloop
  endfacet
  facet normal -0.290285 0.95694 0
    outer loop
      vertex -1.569 3.78791 -3
      vertex -1.569 3.78791 3
      vertex -0.79987 4.02122 -3
    endloop
  endfacet
  facet normal -0.290285 0.95694 0
    outer loop
      vertex -0.79987 4.02122 -3
      vertex -1.569 3.78791 3
      vertex -0.79987 4.02122 3
    endloop
  endfacet
  facet normal -0.471397 0.881921 0
    outer loop
      vertex -2.27784 3.40902 -3
      vertex -2.27784 3.40902 3
      vertex -1.569 3.78791 -3
    endloop
  endfacet
  facet normal -0.471397 0.881921 0
    outer loop
      vertex -1.569 3.78791 -3
      vertex -2.27784 3.40902 3
      vertex -1.569 3.78791 3
    endloop
  endfacet
  facet normal -0.634393 0.773011 0
    outer loop
      vertex -2.89914 2.89914 -3
      vertex -2.89914 2.89914 3
      vertex -2.27784 3.40902 -3
    endloop
  endfacet
  facet normal -0.634393 0.773011 0
    outer loop
      vertex -2.27784 3.40902 -3
      vertex -2.89914 2.89914 3
      vertex -2.27784 3.40902 3
    endloop
  endfacet
  facet normal -0.773011 0.634393 0
    outer loop
      vertex -3.40902 2.27784 -3
      vertex -3.40902 2.27784 3
      vertex -2.89914 2.89914 -3
    endloop
  endfacet
  facet normal -0.773011 0.634393 0
    outer loop
      vertex -2.89914 2.89914 -3
      vertex -3.40902 2.27784 3
      vertex -2.89914 2.89914 3
    endloop
  endfacet
  facet normal -0.881921 0.471397 0
    outer loop
      vertex -3.78791 1.569 -3
      vertex -3.78791 1.569 3
      vertex -3.40902 2.27784 -3
    endloop
  endfacet
  facet normal -0.881921 0.471397 0
    outer loop
      vertex -3.40902 2.27784 -3
      vertex -3.78791 1.569 3
      vertex -3.40902 2.27784 3
    endloop
  endfacet
  facet normal -0.95694 0.290285 0
    outer loop
      vertex -4.02122 0.79987 -3
      vertex -4.02122 0.79987 3
      vertex -3.78791 1.569 -3
    endloop
  endfacet
  facet normal -0.95694 0.290285 0
    outer loop
      vertex -3.78791 1.569 -3
      vertex -4.02122 0.79987 3
      vertex -3.78791 1.569 3
    endloop
  endfacet
  facet normal 0.995185 -0.0980174 0
    outer loop
      vertex -2.99139 0.595025 -3
      vertex -2.99139 0.595025 3
      vertex -3.05 0 3
    endloop
  endfacet
  facet normal 0.995185 -0.0980174 0
    outer loop
      vertex -3.05 0 -3
      vertex -2.99139 0.595025 -3
      vertex -3.05 0 3
    endloop
  endfacet
  facet normal 0.995185 0.0980174 0
    outer loop
      vertex -3.05 0 3
      vertex -2.99139 -0.595025 3
      vertex -2.99139 -0.595025 -3
    endloop
  endfacet
  facet normal 0.995185 0.0980174 0
    outer loop
      vertex -3.05 0 -3
      vertex -3.05 0 3
      vertex -2.99139 -0.595025 -3
    endloop
  endfacet
  facet normal 0.956941 -0.290284 0
    outer loop
      vertex -2.81783 1.16718 -3
      vertex -2.81783 1.16718 3
      vertex -2.99139 0.595025 3
    endloop
  endfacet
  facet normal 0.956941 -0.290284 0
    outer loop
      vertex -2.99139 0.595025 -3
      vertex -2.81783 1.16718 -3
      vertex -2.99139 0.595025 3
    endloop
  endfacet
  facet normal 0.881921 -0.471398 0
    outer loop
      vertex -2.53598 1.69449 -3
      vertex -2.53598 1.69449 3
      vertex -2.81783 1.16718 3
    endloop
  endfacet
  facet normal 0.881921 -0.471398 0
    outer loop
      vertex -2.81783 1.16718 -3
      vertex -2.53598 1.69449 -3
      vertex -2.81783 1.16718 3
    endloop
  endfacet
  facet normal 0.773011 -0.634392 0
    outer loop
      vertex -2.15668 2.15668 -3
      vertex -2.15668 2.15668 3
      vertex -2.53598 1.69449 3
    endloop
  endfacet
  facet normal 0.773011 -0.634392 0
    outer loop
      vertex -2.53598 1.69449 -3
      vertex -2.15668 2.15668 -3
      vertex -2.53598 1.69449 3
    endloop
  endfacet
  facet normal 0.634392 -0.773011 0
    outer loop
      vertex -1.69449 2.53598 -3
      vertex -1.69449 2.53598 3
      vertex -2.15668 2.15668 3
    endloop
  endfacet
  facet normal 0.634392 -0.773011 0
    outer loop
      vertex -2.15668 2.15668 -3
      vertex -1.69449 2.53598 -3
      vertex -2.15668 2.15668 3
    endloop
  endfacet
  facet normal 0.471398 -0.881921 0
    outer loop
      vertex -1.16718 2.81783 -3
      vertex -1.16718 2.81783 3
      vertex -1.69449 2.53598 3
    endloop
  endfacet
  facet normal 0.471398 -0.881921 0
    outer loop
      vertex -1.69449 2.53598 -3
      vertex -1.16718 2.81783 -3
      vertex -1.69449 2.53598 3
    endloop
  endfacet
  facet normal 0.290284 -0.956941 0
    outer loop
      vertex -0.595025 2.99139 -3
      vertex -0.595025 2.99139 3
      vertex -1.16718 2.81783 3
    endloop
  endfacet
  facet normal 0.290284 -0.956941 0
    outer loop
      vertex -1.16718 2.81783 -3
      vertex -0.595025 2.99139 -3
      vertex -1.16718 2.81783 3
    endloop
  endfacet
  facet normal 0.0980174 -0.995185 0
    outer loop
      vertex 0 3.05 -3
      vertex 0 3.05 3
      vertex -0.595025 2.99139 3
    endloop
  endfacet
  facet normal 0.0980174 -0.995185 0
    outer loop
      vertex -0.595025 2.99139 -3
      vertex 0 3.05 -3
      vertex -0.595025 2.99139 3
    endloop
  endfacet
  facet normal -0.0980174 -0.995185 0
    outer loop
      vertex 0.595025 2.99139 -3
      vertex 0.595025 2.99139 3
      vertex 0 3.05 3
    endloop
  endfacet
  facet normal -0.0980174 -0.995185 0
    outer loop
      vertex 0 3.05 -3
      vertex 0.595025 2.99139 -3
      vertex 0 3.05 3
    endloop
  endfacet
  facet normal -0.290284 -0.956941 0
    outer loop
      vertex 1.16718 2.81783 -3
      vertex 1.16718 2.81783 3
      vertex 0.595025 2.99139 3
    endloop
  endfacet
  facet normal -0.290284 -0.956941 0
    outer loop
      vertex 0.595025 2.99139 -3
      vertex 1.16718 2.81783 -3
      vertex 0.595025 2.99139 3
    endloop
  endfacet
  facet normal -0.471398 -0.881921 0
    outer loop
      vertex 1.69449 2.53598 -3
      vertex 1.69449 2.53598 3
      vertex 1.16718 2.81783 3
    endloop
  endfacet
  facet normal -0.471398 -0.881921 0
    outer loop
      vertex 1.16718 2.81783 -3
      vertex 1.69449 2.53598 -3
      vertex 1.16718 2.81783 3
    endloop
  endfacet
  facet normal -0.634392 -0.773011 0
    outer loop
      vertex 2.15668 2.15668 -3
      vertex 2.15668 2.15668 3
      vertex 1.69449 2.53598 3
    endloop
  endfacet
  facet normal -0.634392 -0.773011 0
    outer loop
      vertex 1.69449 2.53598 -3
      vertex 2.15668 2.15668 -3
      vertex 1.69449 2.53598 3
    endloop
  endfacet
  facet normal -0.773011 -0.634392 0
    outer loop
      vertex 2.53598 1.69449 3
      vertex 2.15668 2.15668 3
      vertex 2.53598 1.69449 -3
    endloop
  endfacet
  facet normal -0.773011 -0.634392 0
    outer loop
      vertex 2.53598 1.69449 -3
      vertex 2.15668 2.15668 3
      vertex 2.15668 2.15668 -3
    endloop
  endfacet
  facet normal -0.881921 -0.471398 0
    outer loop
      vertex 2.81783 1.16718 3
      vertex 2.53598 1.69449 3
      vertex 2.81783 1.16718 -3
    endloop
  endfacet
  facet normal -0.881921 -0.471398 0
    outer loop
      vertex 2.81783 1.16718 -3
      vertex 2.53598 1.69449 3
      vertex 2.53598 1.69449 -3
    endloop
  endfacet
  facet normal -0.956941 -0.290284 0
    outer loop
      vertex 2.99139 0.595025 3
      vertex 2.81783 1.16718 3
      vertex 2.99139 0.595025 -3
    endloop
  endfacet
  facet normal -0.956941 -0.290284 0
    outer loop
      vertex 2.99139 0.595025 -3
      vertex 2.81783 1.16718 3
      vertex 2.81783 1.16718 -3
    endloop
  endfacet
  facet normal -0.995185 -0.0980174 0
    outer loop
      vertex 3.05 0 3
      vertex 2.99139 0.595025 3
      vertex 3.05 0 -3
    endloop
  endfacet
  facet normal -0.995185 -0.0980174 0
    outer loop
      vertex 3.05 0 -3
      vertex 2.99139 0.595025 3
      vertex 2.99139 0.595025 -3
    endloop
  endfacet
  facet normal -0.995185 0.0980174 0
    outer loop
      vertex 3.05 0 3
      vertex 3.05 0 -3
      vertex 2.99139 -0.595025 3
    endloop
  endfacet
  facet normal -0.995185 0.0980174 0
    outer loop
      vertex 2.99139 -0.595025 3
      vertex 3.05 0 -3
      vertex 2.99139 -0.595025 -3
    endloop
  endfacet
  facet normal -0.956941 0.290284 0
    outer loop
      vertex 2.99139 -0.595025 3
      vertex 2.99139 -0.595025 -3
      vertex 2.81783 -1.16718 3
    endloop
  endfacet
  facet normal -0.956941 0.290284 0
    outer loop
      vertex 2.81783 -1.16718 3
      vertex 2.99139 -0.595025 -3
      vertex 2.81783 -1.16718 -3
    endloop
  endfacet
  facet normal -0.881921 0.471398 0
    outer loop
      vertex 2.81783 -1.16718 3
      vertex 2.81783 -1.16718 -3
      vertex 2.53598 -1.69449 3
    endloop
  endfacet
  facet normal -0.881921 0.471398 0
    outer loop
      vertex 2.53598 -1.69449 3
      vertex 2.81783 -1.16718 -3
      vertex 2.53598 -1.69449 -3
    endloop
  endfacet
  facet normal -0.773011 0.634392 0
    outer loop
      vertex 2.53598 -1.69449 3
      vertex 2.53598 -1.69449 -3
      vertex 2.15668 -2.15668 3
    endloop
  endfacet
  facet normal -0.773011 0.634392 0
    outer loop
      vertex 2.15668 -2.15668 3
      vertex 2.53598 -1.69449 -3
      vertex 2.15668 -2.15668 -3
    endloop
  endfacet
  facet normal -0.634392 0.773011 0
    outer loop
      vertex 2.15668 -2.15668 3
      vertex 2.15668 -2.15668 -3
      vertex 1.69449 -2.53598 3
    endloop
  endfacet
  facet normal -0.634392 0.773011 0
    outer loop
      vertex 1.69449 -2.53598 3
      vertex 2.15668 -2.15668 -3
      vertex 1.69449 -2.53598 -3
    endloop
  endfacet
  facet normal -0.471398 0.881921 0
    outer loop
      vertex 1.69449 -2.53598 3
      vertex 1.69449 -2.53598 -3
      vertex 1.16718 -2.81783 3
    endloop
  endfacet
  facet normal -0.471398 0.881921 0
    outer loop
      vertex 1.16718 -2.81783 3
      vertex 1.69449 -2.53598 -3
      vertex 1.16718 -2.81783 -3
    endloop
  endfacet
  facet normal -0.290284 0.956941 0
    outer loop
      vertex 1.16718 -2.81783 3
      vertex 1.16718 -2.81783 -3
      vertex 0.595025 -2.99139 3
    endloop
  endfacet
  facet normal -0.290284 0.956941 0
    outer loop
      vertex 0.595025 -2.99139 3
      vertex 1.16718 -2.81783 -3
      vertex 0.595025 -2.99139 -3
    endloop
  endfacet
  facet normal -0.0980174 0.995185 0
    outer loop
      vertex 0.595025 -2.99139 3
      vertex 0.595025 -2.99139 -3
      vertex 0 -3.05 3
    endloop
  endfacet
  facet normal -0.0980174 0.995185 0
    outer loop
      vertex 0 -3.05 3
      vertex 0.595025 -2.99139 -3
      vertex 0 -3.05 -3
    endloop
  endfacet
  facet normal 0.0980174 0.995185 0
    outer loop
      vertex 0 -3.05 3
      vertex 0 -3.05 -3
      vertex -0.595025 -2.99139 3
    endloop
  endfacet
  facet normal 0.0980174 0.995185 0
    outer loop
      vertex -0.595025 -2.99139 3
      vertex 0 -3.05 -3
      vertex -0.595025 -2.99139 -3
    endloop
  endfacet
  facet normal 0.290284 0.956941 0
    outer loop
      vertex -0.595025 -2.99139 3
      vertex -0.595025 -2.99139 -3
      vertex -1.16718 -2.81783 3
    endloop
  endfacet
  facet normal 0.290284 0.956941 0
    outer loop
      vertex -1.16718 -2.81783 3
      vertex -0.595025 -2.99139 -3
      vertex -1.16718 -2.81783 -3
    endloop
  endfacet
  facet normal 0.471398 0.881921 0
    outer loop
      vertex -1.16718 -2.81783 3
      vertex -1.16718 -2.81783 -3
      vertex -1.69449 -2.53598 3
    endloop
  endfacet
  facet normal 0.471398 0.881921 0
    outer loop
      vertex -1.69449 -2.53598 3
      vertex -1.16718 -2.81783 -3
      vertex -1.69449 -2.53598 -3
    endloop
  endfacet
  facet normal 0.634392 0.773011 0
    outer loop
      vertex -1.69449 -2.53598 3
      vertex -1.69449 -2.53598 -3
      vertex -2.15668 -2.15668 3
    endloop
  endfacet
  facet normal 0.634392 0.773011 0
    outer loop
      vertex -2.15668 -2.15668 3
      vertex -1.69449 -2.53598 -3
      vertex -2.15668 -2.15668 -3
    endloop
  endfacet
  facet normal 0.773011 0.634392 0
    outer loop
      vertex -2.53598 -1.69449 3
      vertex -2.15668 -2.15668 3
      vertex -2.15668 -2.15668 -3
    endloop
  endfacet
  facet normal 0.773011 0.634392 0
    outer loop
      vertex -2.53598 -1.69449 -3
      vertex -2.53598 -1.69449 3
      vertex -2.15668 -2.15668 -3
    endloop
  endfacet
  facet normal 0.881921 0.471398 0
    outer loop
      vertex -2.81783 -1.16718 3
      vertex -2.53598 -1.69449 3
      vertex -2.53598 -1.69449 -3
    endloop
  endfacet
  facet normal 0.881921 0.471398 0
    outer loop
      vertex -2.81783 -1.16718 -3
      vertex -2.81783 -1.16718 3
      vertex -2.53598 -1.69449 -3
    endloop
  endfacet
  facet normal 0.956941 0.290284 0
    outer loop
      vertex -2.99139 -0.595025 3
      vertex -2.81783 -1.16718 3
      vertex -2.81783 -1.16718 -3
    endloop
  endfacet
  facet normal 0.956941 0.290284 0
    outer loop
      vertex -2.99139 -0.595025 -3
      vertex -2.99139 -0.595025 3
      vertex -2.81783 -1.16718 -3
    endloop
  endfacet
  facet normal 0 0 1
    outer loop
      vertex -4.02122 0.79987 3
      vertex -4.1 0 3
      vertex -4.02122 -0.79987 3
    endloop
  endfacet
  facet normal 0 0 1
    outer loop
      vertex -3.40902 -2.27784 3
      vertex -4.02122 0.79987 3
      vertex -3.78791 -1.569 3
    endloop
  endfacet
  facet normal 0 0 1
    outer loop
      vertex -3.78791 -1.569 3
      vertex -4.02122 0.79987 3
      vertex -4.02122 -0.79987 3
    endloop
  endfacet
  facet normal 0 0 1
    outer loop
      vertex -2.89914 -2.89914 3
      vertex -4.02122 0.79987 3
      vertex -3.40902 -2.27784 3
    endloop
  endfacet
  facet normal 0 0 1
    outer loop
      vertex -2.27784 -3.40902 3
      vertex -4.02122 0.79987 3
      vertex -2.89914 -2.89914 3
    endloop
  endfacet
  facet normal 0 0 1
    outer loop
      vertex -1.569 -3.78791 3
      vertex -4.02122 0.79987 3
      vertex -2.27784 -3.40902 3
    endloop
  endfacet
  facet normal 0 0 1
    outer loop
      vertex -2.53598 -1.69449 3
      vertex -4.02122 0.79987 3
      vertex -1.569 -3.78791 3
    endloop
  endfacet
  facet normal 0 0 1
    outer loop
      vertex 1.69449 2.53598 3
      vertex 2.15668 2.15668 3
      vertex 2.89914 2.89914 3
    endloop
  endfacet
  facet normal 0 0 1
    outer loop
      vertex -1.16718 2.81783 3
      vertex -0.595025 2.99139 3
      vertex 0.79987 4.02122 3
    endloop
  endfacet
  facet normal 0 0 1
    outer loop
      vertex 0 3.05 3
      vertex 0.595025 2.99139 3
      vertex 1.569 3.78791 3
    endloop
  endfacet
  facet normal 0 0 1
    outer loop
      vertex -0.79987 4.02122 3
      vertex -4.02122 0.79987 3
      vertex 0 4.1 3
    endloop
  endfacet
  facet normal 0 0 1
    outer loop
      vertex -1.569 3.78791 3
      vertex -4.02122 0.79987 3
      vertex -0.79987 4.02122 3
    endloop
  endfacet
  facet normal 0 0 1
    outer loop
      vertex -2.27784 3.40902 3
      vertex -4.02122 0.79987 3
      vertex -1.569 3.78791 3
    endloop
  endfacet
  facet normal 0 0 1
    outer loop
      vertex -2.89914 2.89914 3
      vertex -4.02122 0.79987 3
      vertex -2.27784 3.40902 3
    endloop
  endfacet
  facet normal 0 0 1
    outer loop
      vertex -3.40902 2.27784 3
      vertex -4.02122 0.79987 3
      vertex -2.89914 2.89914 3
    endloop
  endfacet
  facet normal 0 0 1
    outer loop
      vertex -3.78791 1.569 3
      vertex -4.02122 0.79987 3
      vertex -3.40902 2.27784 3
    endloop
  endfacet
  facet normal 0 0 1
    outer loop
      vertex 1.69449 -2.53598 3
      vertex 1.16718 -2.81783 3
      vertex 2.27784 -3.40902 3
    endloop
  endfacet
  facet normal 0 0 1
    outer loop
      vertex 2.53598 -1.69449 3
      vertex 2.15668 -2.15668 3
      vertex 3.40902 -2.27784 3
    endloop
  endfacet
  facet normal 0 0 1
    outer loop
      vertex 2.15668 2.15668 3
      vertex 2.53598 1.69449 3
      vertex 3.40902 2.27784 3
    endloop
  endfacet
  facet normal 0 0 1
    outer loop
      vertex 0.595025 2.99139 3
      vertex 1.16718 2.81783 3
      vertex 2.27784 3.40902 3
    endloop
  endfacet
  facet normal 0 0 1
    outer loop
      vertex 0 4.1 3
      vertex -4.02122 0.79987 3
      vertex -2.15668 2.15668 3
    endloop
  endfacet
  facet normal 0 0 1
    outer loop
      vertex 0 4.1 3
      vertex -1.69449 2.53598 3
      vertex 0.79987 4.02122 3
    endloop
  endfacet
  facet normal 0 0 1
    outer loop
      vertex 0 4.1 3
      vertex -2.15668 2.15668 3
      vertex -1.69449 2.53598 3
    endloop
  endfacet
  facet normal 0 0 1
    outer loop
      vertex -1.69449 2.53598 3
      vertex -1.16718 2.81783 3
      vertex 0.79987 4.02122 3
    endloop
  endfacet
  facet normal 0 0 1
    outer loop
      vertex 0.79987 4.02122 3
      vertex -0.595025 2.99139 3
      vertex 1.569 3.78791 3
    endloop
  endfacet
  facet normal 0 0 1
    outer loop
      vertex -0.595025 2.99139 3
      vertex 0 3.05 3
      vertex 1.569 3.78791 3
    endloop
  endfacet
  facet normal 0 0 1
    outer loop
      vertex 1.569 3.78791 3
      vertex 0.595025 2.99139 3
      vertex 2.27784 3.40902 3
    endloop
  endfacet
  facet normal 0 0 1
    outer loop
      vertex -2.53598 1.69449 3
      vertex -2.15668 2.15668 3
      vertex -4.02122 0.79987 3
    endloop
  endfacet
  facet normal 0 0 1
    outer loop
      vertex 2.27784 3.40902 3
      vertex 1.16718 2.81783 3
      vertex 2.89914 2.89914 3
    endloop
  endfacet
  facet normal 0 0 1
    outer loop
      vertex 1.16718 2.81783 3
      vertex 1.69449 2.53598 3
      vertex 2.89914 2.89914 3
    endloop
  endfacet
  facet normal 0 0 1
    outer loop
      vertex 2.89914 2.89914 3
      vertex 2.15668 2.15668 3
      vertex 3.40902 2.27784 3
    endloop
  endfacet
  facet normal 0 0 1
    outer loop
      vertex 1.16718 -2.81783 3
      vertex 0.595025 -2.99139 3
      vertex 1.569 -3.78791 3
    endloop
  endfacet
  facet normal 0 0 1
    outer loop
      vertex 3.40902 2.27784 3
      vertex 2.53598 1.69449 3
      vertex 3.78791 1.569 3
    endloop
  endfacet
  facet normal 0 0 1
    outer loop
      vertex -2.81783 1.16718 3
      vertex -2.53598 1.69449 3
      vertex -4.02122 0.79987 3
    endloop
  endfacet
  facet normal 0 0 1
    outer loop
      vertex 3.78791 1.569 3
      vertex 2.81783 1.16718 3
      vertex 4.02122 0.79987 3
    endloop
  endfacet
  facet normal 0 0 1
    outer loop
      vertex 4.02122 0.79987 3
      vertex 2.99139 0.595025 3
      vertex 4.1 0 3
    endloop
  endfacet
  facet normal 0 0 1
    outer loop
      vertex 4.1 0 3
      vertex 3.05 0 3
      vertex 4.02122 -0.79987 3
    endloop
  endfacet
  facet normal 0 0 1
    outer loop
      vertex 3.05 0 3
      vertex 2.99139 -0.595025 3
      vertex 4.02122 -0.79987 3
    endloop
  endfacet
  facet normal 0 0 1
    outer loop
      vertex 4.02122 -0.79987 3
      vertex 2.81783 -1.16718 3
      vertex 3.78791 -1.569 3
    endloop
  endfacet
  facet normal 0 0 1
    outer loop
      vertex 3.78791 -1.569 3
      vertex 2.53598 -1.69449 3
      vertex 3.40902 -2.27784 3
    endloop
  endfacet
  facet normal 0 0 1
    outer loop
      vertex 2.53598 1.69449 3
      vertex 2.81783 1.16718 3
      vertex 3.78791 1.569 3
    endloop
  endfacet
  facet normal 0 0 1
    outer loop
      vertex 3.40902 -2.27784 3
      vertex 2.15668 -2.15668 3
      vertex 2.89914 -2.89914 3
    endloop
  endfacet
  facet normal 0 0 1
    outer loop
      vertex 2.81783 1.16718 3
      vertex 2.99139 0.595025 3
      vertex 4.02122 0.79987 3
    endloop
  endfacet
  facet normal 0 0 1
    outer loop
      vertex 2.89914 -2.89914 3
      vertex 1.69449 -2.53598 3
      vertex 2.27784 -3.40902 3
    endloop
  endfacet
  facet normal 0 0 1
    outer loop
      vertex 2.99139 0.595025 3
      vertex 3.05 0 3
      vertex 4.1 0 3
    endloop
  endfacet
  facet normal 0 0 1
    outer loop
      vertex 2.27784 -3.40902 3
      vertex 1.16718 -2.81783 3
      vertex 1.569 -3.78791 3
    endloop
  endfacet
  facet normal 0 0 1
    outer loop
      vertex 2.99139 -0.595025 3
      vertex 2.81783 -1.16718 3
      vertex 4.02122 -0.79987 3
    endloop
  endfacet
  facet normal 0 0 1
    outer loop
      vertex 1.569 -3.78791 3
      vertex 0.595025 -2.99139 3
      vertex 0.79987 -4.02122 3
    endloop
  endfacet
  facet normal 0 0 1
    outer loop
      vertex 0.595025 -2.99139 3
      vertex 0 -3.05 3
      vertex 0.79987 -4.02122 3
    endloop
  endfacet
  facet normal 0 0 1
    outer loop
      vertex 0.79987 -4.02122 3
      vertex -0.595025 -2.99139 3
      vertex 0 -4.1 3
    endloop
  endfacet
  facet normal 0 0 1
    outer loop
      vertex 2.15668 -2.15668 3
      vertex 1.69449 -2.53598 3
      vertex 2.89914 -2.89914 3
    endloop
  endfacet
  facet normal 0 0 1
    outer loop
      vertex 0 -4.1 3
      vertex -1.16718 -2.81783 3
      vertex -0.79987 -4.02122 3
    endloop
  endfacet
  facet normal 0 0 1
    outer loop
      vertex -1.16718 -2.81783 3
      vertex -1.69449 -2.53598 3
      vertex -0.79987 -4.02122 3
    endloop
  endfacet
  facet normal 0 0 1
    outer loop
      vertex -0.79987 -4.02122 3
      vertex -2.15668 -2.15668 3
      vertex -1.569 -3.78791 3
    endloop
  endfacet
  facet normal 0 0 1
    outer loop
      vertex -2.15668 -2.15668 3
      vertex -2.53598 -1.69449 3
      vertex -1.569 -3.78791 3
    endloop
  endfacet
  facet normal 0 0 1
    outer loop
      vertex -2.81783 -1.16718 3
      vertex -4.02122 0.79987 3
      vertex -2.53598 -1.69449 3
    endloop
  endfacet
  facet normal 0 0 1
    outer loop
      vertex -1.69449 -2.53598 3
      vertex -2.15668 -2.15668 3
      vertex -0.79987 -4.02122 3
    endloop
  endfacet
  facet normal 0 0 1
    outer loop
      vertex -2.81783 -1.16718 3
      vertex -2.99139 -0.595025 3
      vertex -4.02122 0.79987 3
    endloop
  endfacet
  facet normal 0 0 1
    outer loop
      vertex -2.99139 -0.595025 3
      vertex -3.05 0 3
      vertex -4.02122 0.79987 3
    endloop
  endfacet
  facet normal 0 0 1
    outer loop
      vertex -0.595025 -2.99139 3
      vertex -1.16718 -2.81783 3
      vertex 0 -4.1 3
    endloop
  endfacet
  facet normal 0 0 1
    outer loop
      vertex 0 -3.05 3
      vertex -0.595025 -2.99139 3
      vertex 0.79987 -4.02122 3
    endloop
  endfacet
  facet normal 0 0 1
    outer loop
      vertex -3.05 0 3
      vertex -2.99139 0.595025 3
      vertex -4.02122 0.79987 3
    endloop
  endfacet
  facet normal 0 0 1
    outer loop
      vertex 2.81783 -1.16718 3
      vertex 2.53598 -1.69449 3
      vertex 3.78791 -1.569 3
    endloop
  endfacet
  facet normal 0 0 1
    outer loop
      vertex -2.99139 0.595025 3
      vertex -2.81783 1.16718 3
      vertex -4.02122 0.79987 3
    endloop
  endfacet
endsolid OpenSCAD_Model
